<svg width="24" height="25" viewBox="0 0 24 25" fill="none" xmlns="http://www.w3.org/2000/svg">
<path d="M16.2112 7.4616H7.79117C7.45875 7.46112 7.133 7.55478 6.85161 7.73176C6.57023 7.90873 6.34471 8.16177 6.20117 8.4616C6.03314 8.81734 5.96842 9.21313 6.01438 9.60387C6.06035 9.9946 6.21516 10.3646 6.46117 10.6716L10.6712 15.7716C10.8364 15.9622 11.0406 16.1151 11.2701 16.2199C11.4996 16.3247 11.7489 16.3789 12.0012 16.3789C12.2534 16.3789 12.5027 16.3247 12.7322 16.2199C12.9617 16.1151 13.166 15.9622 13.3312 15.7716L17.5412 10.6716C17.7872 10.3646 17.942 9.9946 17.988 9.60387C18.0339 9.21313 17.9692 8.81734 17.8012 8.4616C17.6576 8.16177 17.4321 7.90873 17.1507 7.73176C16.8693 7.55478 16.5436 7.46112 16.2112 7.4616Z" fill="#834A4A"/>
</svg>
