<svg width="22" height="23" viewBox="0 0 22 23" fill="none" xmlns="http://www.w3.org/2000/svg">
<path d="M16.0443 9.08854C16.0443 6.30187 13.7893 4.04688 11.0026 4.04688C8.21594 4.04688 5.96094 6.30187 5.96094 9.08854C5.96094 11.5635 7.73927 13.6077 10.0859 14.0385V15.9635H8.2526V17.7969H10.0859V19.6302H11.9193V17.7969H13.7526V15.9635H11.9193V14.0385C14.2659 13.6077 16.0443 11.5635 16.0443 9.08854ZM7.79427 9.08854C7.79427 7.31937 9.23344 5.88021 11.0026 5.88021C12.7718 5.88021 14.2109 7.31937 14.2109 9.08854C14.2109 10.8577 12.7718 12.2969 11.0026 12.2969C9.23344 12.2969 7.79427 10.8577 7.79427 9.08854Z" fill="#834A4A"/>
</svg>
