<svg width="24" height="25" viewBox="0 0 24 25" fill="none" xmlns="http://www.w3.org/2000/svg">
<path fill-rule="evenodd" clip-rule="evenodd" d="M8 4.37891H16V2.37891H18V4.37891H19C19.5304 4.37891 20.0391 4.58962 20.4142 4.96469C20.7893 5.33977 21 5.84847 21 6.37891V20.3789C21 20.9093 20.7893 21.418 20.4142 21.7931C20.0391 22.1682 19.5304 22.3789 19 22.3789H5C4.46957 22.3789 3.96086 22.1682 3.58579 21.7931C3.21071 21.418 3 20.9093 3 20.3789V6.37891C3 5.84847 3.21071 5.33977 3.58579 4.96469C3.96086 4.58962 4.46957 4.37891 5 4.37891H6V2.37891H8V4.37891ZM5 8.37891V20.3789H19V8.37891H5ZM7 11.3789H9V13.3789H7V11.3789ZM11 11.3789H13V13.3789H11V11.3789ZM15 11.3789H17V13.3789H15V11.3789ZM15 15.3789H17V17.3789H15V15.3789ZM11 15.3789H13V17.3789H11V15.3789ZM7 15.3789H9V17.3789H7V15.3789Z" fill="#834A4A"/>
</svg>
