<svg width="22" height="23" viewBox="0 0 22 23" fill="none" xmlns="http://www.w3.org/2000/svg">
<path d="M18.3307 4.04688V9.54688H16.4974V7.18646L12.8536 10.8073C13.1439 11.2351 13.3655 11.6897 13.5182 12.1713C13.671 12.6528 13.7474 13.153 13.7474 13.6719C13.7474 15.0774 13.2585 16.2691 12.2807 17.2469C11.303 18.2247 10.1113 18.7135 8.70573 18.7135C7.30017 18.7135 6.10851 18.2247 5.13073 17.2469C4.15295 16.2691 3.66406 15.0774 3.66406 13.6719C3.66406 12.2663 4.15295 11.0747 5.13073 10.0969C6.10851 9.1191 7.30017 8.63021 8.70573 8.63021C9.2099 8.63021 9.70642 8.70263 10.1953 8.84746C10.6842 8.99229 11.1349 9.21779 11.5474 9.52396L15.1911 5.88021H12.8307V4.04688H18.3307ZM8.70573 10.4635C7.81962 10.4635 7.06337 10.7767 6.43698 11.4031C5.81059 12.0295 5.4974 12.7858 5.4974 13.6719C5.4974 14.558 5.81059 15.3142 6.43698 15.9406C7.06337 16.567 7.81962 16.8802 8.70573 16.8802C9.59184 16.8802 10.3481 16.567 10.9745 15.9406C11.6009 15.3142 11.9141 14.558 11.9141 13.6719C11.9141 12.7858 11.6009 12.0295 10.9745 11.4031C10.3481 10.7767 9.59184 10.4635 8.70573 10.4635Z" fill="#834A4A"/>
</svg>
